# xmcd CD database file generated by LOLA_Freedb v0.9beta0
# 
# Track frame offsets:
#      150
#      13886
#      25664
# 
# Disc length: 510 seconds
# 
# Revision: 0 
# Processed by: cddbd v1.5.2PL0 Copyright (c) Steve Scherf et al.
# Submitted via: LOLA_Freedb v0.9beta0
# 
DISCID=1901fc03
DTITLE=Katja Kaye - Der erste Kuss
DYEAR=2008
DGENRE=
TTITLE0=Katja Kaye - Der erste Kuss
TTITLE1=Katja Kaye - Zieh deine Schuhe aus (Radio Vers)
TTITLE2=Katja Kaye - Zieh deine Schuhe aus (Album Vers)
EXTD=
EXTT0=
EXTT1=
EXTT2=
PLAYORDER=
